# xmcd
#
# Track frame offsets:
#	150
#	12895
#	23859
#	32903
#	44080
#	56230
#	68908
#	80325
#	91748
#	102599
#	114812
#	125542
#	137683
#	148465
#	160511
#	169514
#	181259
#	195491
#	206577
#	215976
#	228732
#	239618
#	250247
#	261899
#	276087
#	287146
#	299322
#	311375
#
# Disc length: 4289 seconds
#
# Revision: 1
# Processed by: cddbd v1.5.2PL0 Copyright (c) Steve Scherf et al.
# Submitted via: audiograbber 1.83.01
#
DISCID=a810bf1c
DTITLE=Various Artist - R and B Spotlight '61
DYEAR=1900
DGENRE=R&B
TTITLE0=Jimmy Reed - Big Boss Man
TTITLE1=Fats Domino - Jambalaya (On The Bayou)
TTITLE2=Ray Charles - Hit The Road Jack
TTITLE3=The Chantels - Well, I Told You
TTITLE4=Little Junior Parker - In The Dark
TTITLE5=Hank Ballard And The Midnighters - The Hoochi Coochi Coo
TTITLE6=Chubby Checker - Pony Time
TTITLE7=Gary U.S. Bonds - Quarter To Three
TTITLE8=Ace Cannon - Tuff
TTITLE9=The Coasters - Wait a Minute
TTITLE10=Bobby Lewis - Tossin' And Turnin'
TTITLE11=Freddy King - I'm Tore Down
TTITLE12=LaVern Baker - You're The Boss
TTITLE13=Bobby Bland - Turn On Your Love Light
TTITLE14=Chris Kenner - I Like It Like That (Part 1)
TTITLE15=Ike And Tina Turner - Poor Fool
TTITLE16=Ray Charles - One Mint Julep
TTITLE17=Etta James - Don't Cry Baby
TTITLE18=The Marathons - Peanut Butter
TTITLE19=Roy Hamilton - You Can Have Her
TTITLE20=Prince La La - She Put The Hurt On Me
TTITLE21=Chubby Checker - Let's Twist Again
TTITLE22=Gene And Wendell - The Roach
TTITLE23=Hank Ballard And The Midnighters - Let's Go Again (Where We Went Last 
TTITLE23=Night)
TTITLE24=Lee Dorsey - Ya Ya
TTITLE25=Fats Domino - Ain't That Just Like A Woman
TTITLE26=Freddy King - San-Ho-Zay
TTITLE27=Joe Barry - I'm a Fool To Care
EXTD=
EXTT0=
EXTT1=
EXTT2=
EXTT3=
EXTT4=
EXTT5=
EXTT6=
EXTT7=
EXTT8=
EXTT9=
EXTT10=
EXTT11=
EXTT12=
EXTT13=
EXTT14=
EXTT15=
EXTT16=
EXTT17=
EXTT18=
EXTT19=
EXTT20=
EXTT21=
EXTT22=
EXTT23=
EXTT24=
EXTT25=
EXTT26=
EXTT27=
PLAYORDER=
